<mxfile host="Electron" modified="2023-12-21T21:22:47.162Z" agent="Mozilla/5.0 (X11; Linux x86_64) AppleWebKit/537.36 (KHTML, like Gecko) draw.io/21.6.1 Chrome/112.0.5615.204 Electron/24.6.1 Safari/537.36" etag="2izuZuAuX1NwDyNB-Skk" version="21.6.1" type="device">
  <diagram name="PÃ¡gina-1" id="SCvp5f4zxpA5coqOaKw5">
    <mxGraphModel dx="584" dy="345" grid="1" gridSize="10" guides="1" tooltips="1" connect="1" arrows="1" fold="1" page="1" pageScale="1" pageWidth="827" pageHeight="1169" math="0" shadow="0">
      <root>
        <mxCell id="0" />
        <mxCell id="1" parent="0" />
        <mxCell id="Y7DuxYv228GxXRIsehfs-1" value="Tx&lt;sub style=&quot;font-size: 9px;&quot;&gt;1&lt;/sub&gt;" style="rounded=0;whiteSpace=wrap;html=1;fontSize=9;" vertex="1" parent="1">
          <mxGeometry x="240" y="320" width="40" height="40" as="geometry" />
        </mxCell>
        <mxCell id="Y7DuxYv228GxXRIsehfs-21" value="" style="edgeStyle=orthogonalEdgeStyle;rounded=0;orthogonalLoop=1;jettySize=auto;html=1;fontSize=9;" edge="1" parent="1" source="Y7DuxYv228GxXRIsehfs-2" target="Y7DuxYv228GxXRIsehfs-11">
          <mxGeometry relative="1" as="geometry" />
        </mxCell>
        <mxCell id="Y7DuxYv228GxXRIsehfs-2" value="Tx&lt;sub style=&quot;font-size: 9px;&quot;&gt;2&lt;/sub&gt;" style="rounded=0;whiteSpace=wrap;html=1;fontSize=9;" vertex="1" parent="1">
          <mxGeometry x="320" y="320" width="40" height="40" as="geometry" />
        </mxCell>
        <mxCell id="Y7DuxYv228GxXRIsehfs-18" value="" style="edgeStyle=orthogonalEdgeStyle;rounded=0;orthogonalLoop=1;jettySize=auto;html=1;fontSize=9;" edge="1" parent="1" source="Y7DuxYv228GxXRIsehfs-5" target="Y7DuxYv228GxXRIsehfs-15">
          <mxGeometry relative="1" as="geometry" />
        </mxCell>
        <mxCell id="Y7DuxYv228GxXRIsehfs-5" value="Tx&lt;sub style=&quot;font-size: 9px;&quot;&gt;n&lt;/sub&gt;" style="rounded=0;whiteSpace=wrap;html=1;fontSize=9;" vertex="1" parent="1">
          <mxGeometry x="560" y="320" width="40" height="40" as="geometry" />
        </mxCell>
        <mxCell id="Y7DuxYv228GxXRIsehfs-17" value="" style="edgeStyle=orthogonalEdgeStyle;rounded=0;orthogonalLoop=1;jettySize=auto;html=1;fontSize=9;" edge="1" parent="1" source="Y7DuxYv228GxXRIsehfs-6" target="Y7DuxYv228GxXRIsehfs-16">
          <mxGeometry relative="1" as="geometry" />
        </mxCell>
        <mxCell id="Y7DuxYv228GxXRIsehfs-6" value="Tx&lt;sub style=&quot;font-size: 9px;&quot;&gt;n-1&lt;/sub&gt;" style="rounded=0;whiteSpace=wrap;html=1;fontSize=9;" vertex="1" parent="1">
          <mxGeometry x="480" y="320" width="40" height="40" as="geometry" />
        </mxCell>
        <mxCell id="Y7DuxYv228GxXRIsehfs-7" value="..." style="text;html=1;strokeColor=none;fillColor=none;align=center;verticalAlign=middle;whiteSpace=wrap;rounded=0;fontSize=9;" vertex="1" parent="1">
          <mxGeometry x="400" y="320" width="40" height="40" as="geometry" />
        </mxCell>
        <mxCell id="Y7DuxYv228GxXRIsehfs-8" value="" style="endArrow=classic;html=1;rounded=0;exitX=0.5;exitY=0;exitDx=0;exitDy=0;fontSize=9;" edge="1" parent="1" source="Y7DuxYv228GxXRIsehfs-1">
          <mxGeometry width="50" height="50" relative="1" as="geometry">
            <mxPoint x="440" y="300" as="sourcePoint" />
            <mxPoint x="260" y="280" as="targetPoint" />
          </mxGeometry>
        </mxCell>
        <mxCell id="Y7DuxYv228GxXRIsehfs-26" value="" style="edgeStyle=orthogonalEdgeStyle;rounded=0;orthogonalLoop=1;jettySize=auto;html=1;fontSize=9;" edge="1" parent="1" source="Y7DuxYv228GxXRIsehfs-10" target="Y7DuxYv228GxXRIsehfs-22">
          <mxGeometry relative="1" as="geometry" />
        </mxCell>
        <mxCell id="Y7DuxYv228GxXRIsehfs-10" value="H&lt;sub style=&quot;font-size: 9px;&quot;&gt;1&lt;/sub&gt;" style="rounded=0;whiteSpace=wrap;html=1;fontSize=9;" vertex="1" parent="1">
          <mxGeometry x="240" y="240" width="40" height="40" as="geometry" />
        </mxCell>
        <mxCell id="Y7DuxYv228GxXRIsehfs-27" value="" style="edgeStyle=orthogonalEdgeStyle;rounded=0;orthogonalLoop=1;jettySize=auto;html=1;fontSize=9;" edge="1" parent="1" source="Y7DuxYv228GxXRIsehfs-11" target="Y7DuxYv228GxXRIsehfs-22">
          <mxGeometry relative="1" as="geometry" />
        </mxCell>
        <mxCell id="Y7DuxYv228GxXRIsehfs-11" value="H&lt;sub style=&quot;font-size: 9px;&quot;&gt;2&lt;/sub&gt;" style="rounded=0;whiteSpace=wrap;html=1;fontSize=9;" vertex="1" parent="1">
          <mxGeometry x="320" y="240" width="40" height="40" as="geometry" />
        </mxCell>
        <mxCell id="Y7DuxYv228GxXRIsehfs-14" value="..." style="text;html=1;strokeColor=none;fillColor=none;align=center;verticalAlign=middle;whiteSpace=wrap;rounded=0;fontSize=9;" vertex="1" parent="1">
          <mxGeometry x="400" y="240" width="40" height="40" as="geometry" />
        </mxCell>
        <mxCell id="Y7DuxYv228GxXRIsehfs-31" value="" style="edgeStyle=orthogonalEdgeStyle;rounded=0;orthogonalLoop=1;jettySize=auto;html=1;fontSize=9;" edge="1" parent="1" source="Y7DuxYv228GxXRIsehfs-15" target="Y7DuxYv228GxXRIsehfs-24">
          <mxGeometry relative="1" as="geometry" />
        </mxCell>
        <mxCell id="Y7DuxYv228GxXRIsehfs-15" value="H&lt;sub style=&quot;font-size: 9px;&quot;&gt;n&lt;/sub&gt;" style="rounded=0;whiteSpace=wrap;html=1;fontSize=9;" vertex="1" parent="1">
          <mxGeometry x="560" y="240" width="40" height="40" as="geometry" />
        </mxCell>
        <mxCell id="Y7DuxYv228GxXRIsehfs-30" value="" style="edgeStyle=orthogonalEdgeStyle;rounded=0;orthogonalLoop=1;jettySize=auto;html=1;fontSize=9;" edge="1" parent="1" source="Y7DuxYv228GxXRIsehfs-16" target="Y7DuxYv228GxXRIsehfs-24">
          <mxGeometry relative="1" as="geometry" />
        </mxCell>
        <mxCell id="Y7DuxYv228GxXRIsehfs-16" value="H&lt;sub style=&quot;font-size: 9px;&quot;&gt;n-1&lt;/sub&gt;" style="rounded=0;whiteSpace=wrap;html=1;fontSize=9;" vertex="1" parent="1">
          <mxGeometry x="480" y="240" width="40" height="40" as="geometry" />
        </mxCell>
        <mxCell id="Y7DuxYv228GxXRIsehfs-34" value="" style="edgeStyle=orthogonalEdgeStyle;rounded=0;orthogonalLoop=1;jettySize=auto;html=1;fontSize=9;" edge="1" parent="1" source="Y7DuxYv228GxXRIsehfs-22" target="Y7DuxYv228GxXRIsehfs-32">
          <mxGeometry relative="1" as="geometry" />
        </mxCell>
        <mxCell id="Y7DuxYv228GxXRIsehfs-22" value="H&lt;sub style=&quot;font-size: 9px;&quot;&gt;(1+2)&lt;/sub&gt;" style="rounded=0;whiteSpace=wrap;html=1;fontSize=9;" vertex="1" parent="1">
          <mxGeometry x="280" y="160" width="40" height="40" as="geometry" />
        </mxCell>
        <mxCell id="Y7DuxYv228GxXRIsehfs-33" value="" style="edgeStyle=orthogonalEdgeStyle;rounded=0;orthogonalLoop=1;jettySize=auto;html=1;fontSize=9;" edge="1" parent="1" source="Y7DuxYv228GxXRIsehfs-24" target="Y7DuxYv228GxXRIsehfs-32">
          <mxGeometry relative="1" as="geometry" />
        </mxCell>
        <mxCell id="Y7DuxYv228GxXRIsehfs-24" value="H&lt;sub style=&quot;font-size: 7px;&quot;&gt;([n-1]+n)&lt;/sub&gt;" style="rounded=0;whiteSpace=wrap;html=1;fontSize=7;" vertex="1" parent="1">
          <mxGeometry x="520" y="160" width="40" height="40" as="geometry" />
        </mxCell>
        <mxCell id="Y7DuxYv228GxXRIsehfs-25" value="..." style="text;html=1;strokeColor=none;fillColor=none;align=center;verticalAlign=middle;whiteSpace=wrap;rounded=0;fontSize=9;" vertex="1" parent="1">
          <mxGeometry x="400" y="160" width="40" height="40" as="geometry" />
        </mxCell>
        <mxCell id="Y7DuxYv228GxXRIsehfs-32" value="H&lt;sub style=&quot;font-size: 9px;&quot;&gt;(1+2+[n-1]+n)&lt;/sub&gt;" style="rounded=0;whiteSpace=wrap;html=1;fontSize=9;" vertex="1" parent="1">
          <mxGeometry x="320" y="80" width="200" height="40" as="geometry" />
        </mxCell>
        <mxCell id="Y7DuxYv228GxXRIsehfs-36" value="Leaf" style="text;html=1;strokeColor=none;fillColor=none;align=center;verticalAlign=middle;whiteSpace=wrap;rounded=0;rotation=-90;" vertex="1" parent="1">
          <mxGeometry x="188.75" y="333.75" width="62.5" height="15" as="geometry" />
        </mxCell>
        <mxCell id="Y7DuxYv228GxXRIsehfs-41" value="Node or Breanch" style="text;html=1;strokeColor=none;fillColor=none;align=center;verticalAlign=middle;whiteSpace=wrap;rounded=0;rotation=-90;" vertex="1" parent="1">
          <mxGeometry x="147.5" y="217.5" width="145" height="15" as="geometry" />
        </mxCell>
        <mxCell id="Y7DuxYv228GxXRIsehfs-42" value="" style="endArrow=none;dashed=1;html=1;dashPattern=1 3;strokeWidth=2;rounded=0;" edge="1" parent="1">
          <mxGeometry width="50" height="50" relative="1" as="geometry">
            <mxPoint x="240" y="150" as="sourcePoint" />
            <mxPoint x="600" y="150" as="targetPoint" />
          </mxGeometry>
        </mxCell>
        <mxCell id="Y7DuxYv228GxXRIsehfs-43" value="" style="endArrow=none;dashed=1;html=1;dashPattern=1 3;strokeWidth=2;rounded=0;" edge="1" parent="1">
          <mxGeometry width="50" height="50" relative="1" as="geometry">
            <mxPoint x="240" y="300" as="sourcePoint" />
            <mxPoint x="600" y="300" as="targetPoint" />
          </mxGeometry>
        </mxCell>
        <mxCell id="Y7DuxYv228GxXRIsehfs-44" value="" style="endArrow=none;dashed=1;html=1;dashPattern=1 3;strokeWidth=2;rounded=0;" edge="1" parent="1">
          <mxGeometry width="50" height="50" relative="1" as="geometry">
            <mxPoint x="240" y="370" as="sourcePoint" />
            <mxPoint x="600" y="370" as="targetPoint" />
          </mxGeometry>
        </mxCell>
        <mxCell id="Y7DuxYv228GxXRIsehfs-45" value="" style="endArrow=none;dashed=1;html=1;dashPattern=1 3;strokeWidth=2;rounded=0;" edge="1" parent="1">
          <mxGeometry width="50" height="50" relative="1" as="geometry">
            <mxPoint x="240" y="70" as="sourcePoint" />
            <mxPoint x="600" y="70" as="targetPoint" />
          </mxGeometry>
        </mxCell>
        <mxCell id="Y7DuxYv228GxXRIsehfs-46" value="Root" style="text;html=1;strokeColor=none;fillColor=none;align=center;verticalAlign=middle;whiteSpace=wrap;rounded=0;rotation=-90;" vertex="1" parent="1">
          <mxGeometry x="184.7" y="104.69" width="70.62" height="15" as="geometry" />
        </mxCell>
      </root>
    </mxGraphModel>
  </diagram>
</mxfile>
